<svg width="1241" height="591" viewBox="0 0 1241 591" fill="none" xmlns="http://www.w3.org/2000/svg">
<path d="M78.5804 491.682L79.4465 501.603L35.6512 504.136L49.4398 462.49L58.7979 465.896L49.2497 493.752L78.5804 491.682ZM87.5424 415.83L96.4372 409.006L118.148 496.923L109.253 503.747L87.5424 415.83ZM143.262 442.059L152.857 414.265L123.479 416.274L122.613 406.353L166.408 403.82L152.62 445.465L143.262 442.059Z" fill="white" fill-opacity="0.3"/>
<path d="M409.017 331.606C409.997 329.578 411.236 327.761 412.734 326.156C414.232 324.552 415.91 323.157 417.769 321.973C419.628 320.789 421.63 319.818 423.774 319.061C425.936 318.297 428.162 317.731 430.451 317.362L431.068 322.236C429.077 322.677 427.197 323.23 425.43 323.895C423.669 324.548 422.046 325.348 420.563 326.294C419.091 327.246 417.772 328.344 416.607 329.589C415.453 330.839 414.489 332.268 413.713 333.874C412.937 335.48 412.371 337.087 412.014 338.693C411.67 340.305 411.532 341.938 411.601 343.591C411.67 345.243 411.947 346.931 412.43 348.654C412.92 350.366 413.611 352.138 414.504 353.972L410.302 356.519C409.168 354.497 408.275 352.439 407.623 350.345C406.977 348.269 406.59 346.181 406.463 344.08C406.352 341.974 406.504 339.878 406.918 337.793C407.338 335.697 408.037 333.634 409.017 331.606ZM432.062 334.19L437.268 336.705L435.824 339.695C437.386 339.394 438.956 339.241 440.534 339.237C442.113 339.233 443.614 339.372 445.039 339.656L444.267 345.161C442.166 344.392 440.183 343.991 438.319 343.958C436.473 343.919 434.769 344.304 433.207 345.111L427.244 357.458L422.038 354.943L432.062 334.19ZM444.179 352.753C444.858 351.346 445.794 350.142 446.986 349.142C448.183 348.13 449.559 347.392 451.114 346.928C452.668 346.464 454.366 346.315 456.209 346.482C458.063 346.655 459.987 347.223 461.98 348.185C463.962 349.142 465.6 350.302 466.894 351.665C468.205 353.021 469.163 354.481 469.766 356.045C470.382 357.615 470.646 359.239 470.558 360.918C470.482 362.602 470.059 364.241 469.289 365.836C469.193 366.035 469.082 366.249 468.957 366.478C468.85 366.701 468.739 366.9 468.625 367.076L448.997 357.597C448.92 358.326 449.003 359.067 449.246 359.821C449.501 360.58 449.913 361.329 450.482 362.066C451.052 362.804 451.778 363.516 452.661 364.203C453.549 364.878 454.591 365.504 455.787 366.082C456.983 366.659 458.233 367.111 459.536 367.437C460.845 367.751 462.132 367.975 463.398 368.109L463.237 372.933C462.404 372.921 461.576 372.869 460.753 372.775C459.948 372.675 459.125 372.524 458.284 372.32C457.46 372.11 456.612 371.845 455.74 371.525C454.879 371.21 453.992 370.832 453.077 370.391C450.744 369.264 448.834 367.994 447.347 366.582C445.86 365.169 444.76 363.691 444.045 362.146C443.331 360.601 442.992 359.027 443.029 357.425C443.065 355.823 443.448 354.266 444.179 352.753ZM465.117 360.372C465.207 359.707 465.172 359.032 465.011 358.347C464.867 357.656 464.59 356.987 464.18 356.34C463.775 355.682 463.236 355.06 462.564 354.476C461.892 353.891 461.093 353.375 460.167 352.927C459.182 352.452 458.231 352.13 457.315 351.962C456.398 351.794 455.544 351.75 454.754 351.831C453.963 351.912 453.243 352.099 452.595 352.393C451.958 352.693 451.413 353.073 450.959 353.534L465.117 360.372ZM473.948 367.327C474.746 365.674 475.776 364.335 477.038 363.31C478.305 362.273 479.71 361.549 481.253 361.138C482.814 360.721 484.467 360.622 486.211 360.843C487.973 361.058 489.733 361.59 491.492 362.439C493.004 363.17 494.309 364.017 495.405 364.98C496.507 365.932 497.388 366.907 498.048 367.905L498.77 366.41L503.976 368.925L489.858 398.155L484.652 395.64L489.69 385.211C489.08 385.307 488.413 385.354 487.691 385.352C486.969 385.35 486.223 385.293 485.453 385.182C484.682 385.07 483.9 384.894 483.104 384.655C482.315 384.433 481.545 384.14 480.795 383.778C479.036 382.928 477.543 381.889 476.315 380.66C475.098 379.436 474.189 378.1 473.587 376.652C472.984 375.205 472.699 373.686 472.729 372.096C472.777 370.499 473.183 368.91 473.948 367.327ZM479.418 369.969C479.016 370.801 478.8 371.666 478.772 372.563C478.755 373.466 478.921 374.349 479.271 375.212C479.638 376.069 480.182 376.874 480.903 377.627C481.641 378.374 482.561 379.013 483.663 379.546C484.367 379.885 485.084 380.152 485.814 380.346C486.551 380.528 487.277 380.64 487.994 380.683C488.723 380.731 489.436 380.707 490.133 380.61C490.843 380.519 491.513 380.358 492.145 380.128L495.619 372.935C494.96 371.575 494.146 370.445 493.179 369.544C492.229 368.637 491.162 367.897 489.978 367.326C488.782 366.748 487.635 366.397 486.539 366.272C485.46 366.141 484.462 366.201 483.545 366.453C482.64 366.71 481.834 367.137 481.125 367.735C480.417 368.333 479.848 369.077 479.418 369.969ZM520.204 385.308C519.224 387.337 518.044 389.167 516.663 390.799C515.287 392.419 513.734 393.838 512.004 395.056C510.291 396.267 508.415 397.263 506.375 398.042C504.342 398.838 502.181 399.421 499.892 399.79L499.274 394.916C501.266 394.475 503.084 393.914 504.729 393.234C506.379 392.541 507.873 391.709 509.211 390.735C510.548 389.762 511.735 388.636 512.772 387.358C513.82 386.086 514.732 384.647 515.508 383.04C516.284 381.434 516.797 379.788 517.048 378.101C517.31 376.42 517.351 374.705 517.17 372.954C517 371.209 516.624 369.444 516.04 367.659C515.462 365.861 514.727 364.046 513.834 362.212L518.036 359.664C519.17 361.687 520.104 363.78 520.838 365.942C521.59 368.098 522.08 370.272 522.308 372.465C522.536 374.657 522.487 376.839 522.162 379.009C521.836 381.18 521.184 383.28 520.204 385.308Z" fill="white" fill-opacity="0.3"/>
<path d="M1070.44 42.498C1069.82 42.1283 1069.32 41.7086 1068.92 41.2388C1068.54 40.7635 1068.26 40.2744 1068.09 39.7716C1067.93 39.2549 1067.86 38.7425 1067.9 38.2346C1067.97 37.7211 1068.13 37.2414 1068.4 36.7953C1068.68 36.3353 1069.03 35.9648 1069.44 35.6837C1069.88 35.3971 1070.36 35.2125 1070.89 35.1299C1071.41 35.0472 1071.97 35.0693 1072.56 35.1962C1073.17 35.3175 1073.78 35.563 1074.39 35.9327C1075.02 36.3108 1075.52 36.7376 1075.9 37.2129C1076.3 37.6826 1076.59 38.1689 1076.76 38.6717C1076.93 39.1745 1076.99 39.6827 1076.93 40.1961C1076.89 40.7041 1076.73 41.188 1076.45 41.648C1076.18 42.0941 1075.83 42.4604 1075.39 42.747C1074.97 43.0281 1074.5 43.2169 1073.96 43.3135C1073.44 43.3961 1072.87 43.3768 1072.26 43.2555C1071.67 43.1287 1071.06 42.8762 1070.44 42.498ZM1065.31 43.9989L1071.5 47.7298L1056.63 72.4021L1050.44 68.6712L1065.31 43.9989ZM1079.35 58.7872L1075.12 56.2411L1077.92 51.5994L1082.14 54.1455C1083.15 52.4728 1084.28 51.1311 1085.54 50.1205C1086.8 49.0959 1088.15 48.4064 1089.58 48.0521C1091.03 47.6923 1092.54 47.6619 1094.11 47.9611C1095.69 48.2686 1097.29 48.9098 1098.91 49.8845C1100.04 50.5651 1101.08 51.3447 1102.03 52.2232C1102.99 53.0877 1103.77 53.9741 1104.36 54.8826L1099.03 58.7654C1098.81 58.3685 1098.45 57.9016 1097.94 57.3646C1097.44 56.836 1096.82 56.3532 1096.1 55.9163C1094.68 55.0592 1093.28 54.7702 1091.92 55.0493C1090.58 55.3228 1089.38 56.2652 1088.33 57.8764L1096.13 62.5779L1093.33 67.2196L1085.54 62.5181L1073.46 82.5487L1067.27 78.8177L1079.35 58.7872ZM1106.56 85.5694C1107.57 83.8967 1108.87 82.5065 1110.47 81.3989C1112.08 80.2773 1113.88 79.5176 1115.86 79.1198C1117.85 78.722 1119.98 78.7334 1122.26 79.1541C1124.55 79.5831 1126.87 80.5119 1129.24 81.9404C1131.6 83.3605 1133.5 84.9932 1134.96 86.8385C1136.43 88.6782 1137.46 90.6064 1138.03 92.6229C1138.61 94.6478 1138.75 96.6998 1138.45 98.7787C1138.16 100.866 1137.45 102.857 1136.3 104.753C1136.16 104.99 1136 105.244 1135.82 105.514C1135.66 105.779 1135.49 106.015 1135.33 106.221L1112 92.1542C1111.82 93.0527 1111.84 93.985 1112.05 94.9513C1112.28 95.9259 1112.71 96.9052 1113.33 97.889C1113.95 98.8728 1114.77 99.8431 1115.79 100.8C1116.82 101.743 1118.05 102.643 1119.47 103.5C1120.89 104.357 1122.39 105.063 1123.98 105.619C1125.57 106.161 1127.15 106.589 1128.71 106.902L1127.95 112.888C1126.91 112.777 1125.89 112.616 1124.88 112.404C1123.89 112.187 1122.88 111.903 1121.86 111.552C1120.85 111.196 1119.83 110.768 1118.78 110.269C1117.75 109.778 1116.69 109.205 1115.6 108.55C1112.82 106.877 1110.59 105.077 1108.91 103.147C1107.22 101.217 1106.02 99.2499 1105.31 97.2443C1104.6 95.2386 1104.36 93.2409 1104.59 91.2512C1104.82 89.2614 1105.48 87.3675 1106.56 85.5694ZM1131.74 97.4709C1131.93 96.6535 1131.96 95.8092 1131.84 94.938C1131.74 94.0613 1131.48 93.1969 1131.04 92.3446C1130.61 91.4784 1130.01 90.6425 1129.24 89.837C1128.48 89.0315 1127.54 88.2969 1126.44 87.633C1125.27 86.9272 1124.12 86.4168 1123 86.1018C1121.88 85.7869 1120.82 85.6339 1119.83 85.643C1118.83 85.6521 1117.92 85.8023 1117.08 86.0937C1116.25 86.3934 1115.53 86.8036 1114.91 87.3243L1131.74 97.4709ZM1157.12 85.6871L1163.31 89.418L1142.4 124.106L1136.21 120.375L1157.12 85.6871ZM1155.89 121.919C1156.95 123.931 1158.35 125.779 1160.07 127.463C1161.79 129.147 1163.71 130.623 1165.81 131.892C1167.23 132.749 1168.48 133.366 1169.54 133.742C1170.61 134.118 1171.52 134.325 1172.27 134.363C1173.03 134.401 1173.64 134.296 1174.12 134.049C1174.59 133.801 1174.95 133.475 1175.19 133.071C1175.54 132.486 1175.59 131.828 1175.32 131.099C1175.08 130.379 1174.36 129.665 1173.19 128.96C1172.65 128.632 1172.04 128.314 1171.37 128.005C1170.71 127.697 1170 127.374 1169.25 127.038C1168.52 126.696 1167.76 126.333 1166.97 125.949C1166.19 125.573 1165.42 125.154 1164.65 124.692C1162.98 123.684 1161.66 122.641 1160.69 121.564C1159.74 120.496 1159.08 119.426 1158.72 118.353C1158.36 117.281 1158.27 116.218 1158.45 115.166C1158.63 114.1 1159.02 113.073 1159.62 112.083C1160.38 110.828 1161.37 109.848 1162.59 109.141C1163.82 108.435 1165.2 108.026 1166.75 107.915C1168.31 107.79 1169.99 107.973 1171.78 108.466C1173.59 108.966 1175.44 109.788 1177.33 110.931C1178.32 111.527 1179.32 112.212 1180.32 112.984C1181.34 113.751 1182.31 114.547 1183.24 115.373C1184.17 116.198 1185.03 117.033 1185.83 117.878C1186.64 118.708 1187.33 119.493 1187.89 120.231L1183.05 123.868C1181.83 122.333 1180.53 120.923 1179.15 119.639C1177.8 118.35 1176.3 117.205 1174.64 116.205C1173.48 115.507 1172.45 115.006 1171.53 114.699C1170.63 114.388 1169.85 114.227 1169.17 114.217C1168.5 114.193 1167.93 114.298 1167.47 114.532C1167.03 114.76 1166.68 115.076 1166.44 115.48C1166.26 115.773 1166.16 116.071 1166.13 116.376C1166.11 116.688 1166.18 117.015 1166.33 117.356C1166.51 117.691 1166.79 118.038 1167.16 118.396C1167.56 118.748 1168.08 119.118 1168.72 119.504C1169.3 119.857 1169.94 120.196 1170.64 120.522C1171.34 120.847 1172.06 121.189 1172.82 121.548C1173.58 121.893 1174.35 122.257 1175.15 122.641C1175.96 123.034 1176.76 123.469 1177.55 123.948C1179.03 124.839 1180.22 125.791 1181.11 126.803C1182.01 127.824 1182.64 128.866 1182.99 129.93C1183.33 130.995 1183.43 132.061 1183.28 133.13C1183.13 134.199 1182.75 135.235 1182.15 136.238C1181.37 137.535 1180.34 138.56 1179.07 139.314C1177.8 140.067 1176.32 140.498 1174.64 140.607C1172.97 140.701 1171.11 140.444 1169.06 139.837C1167.03 139.238 1164.85 138.242 1162.54 136.847C1161.12 135.99 1159.8 135.071 1158.58 134.092C1157.36 133.126 1156.24 132.136 1155.21 131.12C1154.2 130.091 1153.29 129.055 1152.47 128.012C1151.67 126.978 1150.97 125.97 1150.39 124.989L1155.89 121.919ZM1188.82 135.155C1189.82 133.483 1191.13 132.092 1192.73 130.985C1194.33 129.863 1196.13 129.104 1198.12 128.706C1200.11 128.308 1202.24 128.319 1204.51 128.74C1206.8 129.169 1209.13 130.098 1211.5 131.526C1213.86 132.946 1215.76 134.579 1217.21 136.424C1218.69 138.264 1219.71 140.192 1220.28 142.209C1220.87 144.234 1221.01 146.286 1220.71 148.365C1220.42 150.452 1219.7 152.443 1218.56 154.339C1218.41 154.576 1218.25 154.83 1218.07 155.1C1217.91 155.365 1217.75 155.601 1217.59 155.807L1194.25 141.74C1194.07 142.639 1194.09 143.571 1194.31 144.537C1194.54 145.512 1194.96 146.491 1195.58 147.475C1196.21 148.459 1197.03 149.429 1198.05 150.386C1199.08 151.329 1200.3 152.229 1201.72 153.086C1203.15 153.943 1204.65 154.649 1206.23 155.205C1207.83 155.747 1209.4 156.175 1210.96 156.488L1210.2 162.474C1209.17 162.363 1208.14 162.202 1207.13 161.99C1206.14 161.773 1205.13 161.489 1204.11 161.138C1203.11 160.781 1202.08 160.354 1201.04 159.855C1200 159.364 1198.94 158.791 1197.85 158.136C1195.08 156.463 1192.85 154.662 1191.16 152.733C1189.47 150.803 1188.27 148.836 1187.56 146.83C1186.85 144.825 1186.61 142.827 1186.84 140.837C1187.07 138.847 1187.73 136.953 1188.82 135.155ZM1214 147.057C1214.18 146.239 1214.22 145.395 1214.1 144.524C1214 143.647 1213.73 142.783 1213.29 141.931C1212.87 141.064 1212.27 140.228 1211.5 139.423C1210.73 138.617 1209.8 137.883 1208.69 137.219C1207.52 136.513 1206.38 136.003 1205.26 135.688C1204.13 135.373 1203.08 135.22 1202.08 135.229C1201.09 135.238 1200.17 135.388 1199.33 135.68C1198.5 135.979 1197.78 136.39 1197.16 136.91L1214 147.057Z" fill="white" fill-opacity="0.3"/>
<path d="M935.454 267.246C934.411 265.595 933.208 264.183 931.844 263.012C930.486 261.813 928.981 260.893 927.328 260.251C925.664 259.592 923.855 259.233 921.9 259.174C919.935 259.099 917.832 259.353 915.59 259.937C917.081 258.164 918.219 256.383 919.006 254.592C919.792 252.802 920.251 251.022 920.381 249.253C920.501 247.468 920.311 245.705 919.812 243.964C919.33 242.213 918.567 240.512 917.524 238.86L916.538 237.3C915.265 235.285 914.392 233.354 913.917 231.505C913.459 229.646 913.438 227.858 913.854 226.139C914.27 224.421 915.145 222.771 916.479 221.189C917.813 219.607 919.645 218.081 921.973 216.61L925.267 214.529L928.6 219.805L925.306 221.886C924.249 222.553 923.38 223.299 922.698 224.122C922.033 224.935 921.592 225.826 921.373 226.796C921.143 227.749 921.153 228.771 921.403 229.861C921.642 230.934 922.142 232.074 922.904 233.279L923.827 234.74C926.153 238.423 927.451 241.83 927.72 244.964C927.996 248.07 927.313 250.939 925.671 253.57C928.753 253.217 931.642 253.841 934.339 255.441C937.042 257.014 939.556 259.642 941.882 263.324L942.805 264.785C943.567 265.991 944.386 266.94 945.263 267.634C946.13 268.311 947.043 268.75 948.002 268.953C948.972 269.172 949.967 269.156 950.986 268.904C952.022 268.643 953.069 268.178 954.126 267.511L957.42 265.43L960.752 270.705L957.458 272.786C955.13 274.257 952.965 275.255 950.963 275.78C948.962 276.305 947.096 276.387 945.365 276.024C943.635 275.662 942.029 274.875 940.547 273.662C939.081 272.44 937.712 270.821 936.44 268.806L935.454 267.246ZM990.838 232.261L991.823 233.822C993.096 235.836 993.961 237.773 994.419 239.632C994.894 241.481 994.923 243.264 994.507 244.982C994.091 246.701 993.216 248.351 991.882 249.933C990.548 251.515 988.717 253.041 986.388 254.512L983.094 256.593L979.762 251.317L983.056 249.236C984.113 248.568 984.973 247.828 985.638 247.016C986.32 246.192 986.77 245.296 986.989 244.326C987.218 243.372 987.213 242.359 986.974 241.286C986.725 240.196 986.219 239.048 985.458 237.843L984.535 236.381C982.209 232.699 980.908 229.305 980.632 226.199C980.362 223.065 981.048 220.183 982.69 217.552C979.609 217.904 976.717 217.294 974.014 215.721C971.317 214.121 968.805 211.48 966.479 207.798L965.556 206.336C964.795 205.131 963.981 204.19 963.114 203.513C962.237 202.819 961.319 202.371 960.359 202.169C959.389 201.95 958.386 201.971 957.35 202.233C956.331 202.484 955.293 202.944 954.236 203.611L950.942 205.692L947.609 200.416L950.903 198.335C953.232 196.865 955.396 195.867 957.398 195.342C959.4 194.817 961.266 194.735 962.996 195.098C964.727 195.46 966.324 196.252 967.79 197.475C969.272 198.687 970.649 200.301 971.922 202.315L972.907 203.876C973.95 205.527 975.151 206.952 976.508 208.15C977.883 209.338 979.401 210.262 981.065 210.921C982.718 211.563 984.522 211.913 986.477 211.972C988.431 212.031 990.529 211.769 992.771 211.184C991.281 212.957 990.147 214.748 989.371 216.554C988.585 218.345 988.132 220.133 988.012 221.918C987.882 223.687 988.058 225.447 988.54 227.198C989.029 228.922 989.795 230.61 990.838 232.261ZM997.858 200.312C997.441 199.652 997.182 198.949 997.081 198.204C996.987 197.433 997.06 196.67 997.3 195.918C997.53 195.149 997.931 194.411 998.501 193.704C999.071 192.997 999.81 192.357 1000.72 191.784C1001.63 191.21 1002.52 190.817 1003.41 190.606C1004.29 190.395 1005.12 190.356 1005.9 190.489C1006.68 190.595 1007.39 190.861 1008.03 191.289C1008.68 191.69 1009.21 192.22 1009.62 192.881C1010.04 193.541 1010.3 194.257 1010.39 195.029C1010.49 195.774 1010.42 196.523 1010.18 197.275C1009.96 198.018 1009.57 198.75 1009.01 199.473C1008.44 200.18 1007.7 200.82 1006.79 201.394C1005.88 201.968 1004.99 202.36 1004.1 202.571C1003.21 202.766 1002.37 202.81 1001.59 202.704C1000.8 202.599 1000.09 202.345 999.444 201.945C998.804 201.517 998.276 200.973 997.858 200.312ZM1010.79 221.008C1010.38 220.347 1010.12 219.639 1010.04 218.884C1009.96 218.129 1010.03 217.38 1010.25 216.638C1010.48 215.869 1010.87 215.136 1011.43 214.44C1012 213.733 1012.73 213.098 1013.62 212.535C1014.58 211.93 1015.55 211.534 1016.54 211.347C1017.54 211.133 1018.51 211.133 1019.45 211.345C1020.39 211.558 1021.29 211.987 1022.13 212.631C1022.99 213.248 1023.74 214.076 1024.4 215.117C1025.88 217.461 1026.49 220.218 1026.23 223.387C1025.99 226.562 1024.86 229.954 1022.85 233.561L1017.21 231.228C1017.75 230.288 1018.19 229.41 1018.53 228.595C1018.88 227.796 1019.15 227.036 1019.34 226.314C1019.53 225.593 1019.65 224.897 1019.69 224.226C1019.74 223.545 1019.73 222.856 1019.66 222.161C1018.79 222.714 1017.9 223.087 1017.01 223.282C1016.14 223.483 1015.32 223.53 1014.54 223.425C1013.75 223.319 1013.04 223.065 1012.39 222.665C1011.75 222.237 1011.22 221.685 1010.79 221.008Z" fill="white" fill-opacity="0.3"/>
<path d="M237.898 193.039L247.186 189.027L254.885 206.849C256.369 204.942 258.168 203.159 260.282 201.501C262.416 199.835 264.802 198.432 267.437 197.293C270.491 195.974 273.426 195.24 276.241 195.091C279.077 194.933 281.708 195.336 284.134 196.298C286.552 197.239 288.73 198.719 290.668 200.736C292.628 202.744 294.258 205.254 295.56 208.266L303.422 226.464L294.165 230.463L286.466 212.641C285.707 210.884 284.733 209.406 283.545 208.206C282.348 206.986 280.979 206.088 279.44 205.512C277.9 204.936 276.224 204.705 274.411 204.817C272.61 204.901 270.726 205.367 268.76 206.216C266.396 207.237 264.363 208.563 262.659 210.192C260.955 211.822 259.588 213.542 258.558 215.352L269.66 241.05L260.372 245.062L237.898 193.039ZM309.38 213.54L320.519 208.727L307.33 178.198C306.01 179.165 304.788 180.214 303.663 181.346C302.559 182.468 301.62 183.655 300.846 184.908L292.928 180.026C294.239 178.119 295.659 176.377 297.186 174.798C298.725 173.19 300.347 171.745 302.052 170.462C303.768 169.15 305.544 167.973 307.378 166.933C309.233 165.883 311.123 164.943 313.047 164.111L313.043 164.187L313.074 164.174L330.465 204.43L341.102 199.835L344.87 208.558L313.148 222.262L309.38 213.54Z" fill="white" fill-opacity="0.3"/>
<path d="M527.518 70.8396L523.127 70.1926L523.838 65.3668L528.229 66.0138C528.485 64.2748 528.959 62.7677 529.65 61.4925C530.344 60.2029 531.223 59.1627 532.287 58.3719C533.368 57.5687 534.611 57.019 536.017 56.7227C537.437 56.4285 538.988 56.4053 540.669 56.653C541.843 56.826 542.978 57.1117 544.074 57.5101C545.172 57.8941 546.125 58.3602 546.933 58.9086L543.853 63.9851C543.535 63.7309 543.07 63.4699 542.458 63.2021C541.86 62.9363 541.185 62.748 540.431 62.6369C538.953 62.4191 537.696 62.6632 536.659 63.3692C535.638 64.0628 534.973 65.2604 534.663 66.9619L542.772 68.1567L542.061 72.9825L533.952 71.7878L530.884 92.6127L524.449 91.6646L527.518 70.8396ZM547.731 68.8653L554.144 69.8102L552.299 82.3312C552.124 83.5196 552.094 84.6257 552.21 85.6496C552.327 86.659 552.647 87.5574 553.167 88.3448C553.702 89.1344 554.463 89.8017 555.449 90.3467C556.451 90.8794 557.735 91.261 559.3 91.4917C560.039 91.6006 560.797 91.6308 561.574 91.5825C562.366 91.5362 563.13 91.4267 563.866 91.2538C564.604 91.0665 565.299 90.821 565.951 90.5172C566.617 90.2156 567.202 89.865 567.705 89.4653L570.252 72.1837L576.686 73.1318L572.903 98.8043L566.469 97.8562L566.792 95.6606C565.074 96.3699 563.388 96.8099 561.734 96.9808C560.08 97.1517 558.536 97.1314 557.101 96.92C554.753 96.5741 552.78 95.9947 551.183 95.1818C549.599 94.371 548.351 93.3504 547.436 92.12C546.538 90.8772 545.958 89.4369 545.696 87.7992C545.436 86.147 545.455 84.3137 545.752 82.2993L547.731 68.8653ZM584.856 74.3579L591.291 75.306L590.97 77.4798C592.824 76.7608 594.554 76.3199 596.163 76.1571C597.785 75.9965 599.343 76.0261 600.836 76.2461C602.792 76.5343 604.561 77.0911 606.142 77.9163C607.725 78.7271 609.042 79.7874 610.093 81.0971C611.144 82.4068 611.885 83.9597 612.316 85.7556C612.764 87.5392 612.825 89.5396 612.498 91.7569L610.64 104.365L604.228 103.42L605.932 91.8554C606.139 90.4496 606.121 89.1662 605.877 88.005C605.65 86.8315 605.216 85.8124 604.573 84.9478C603.947 84.0708 603.127 83.3577 602.112 82.8084C601.114 82.2467 599.955 81.8687 598.637 81.6744C597.941 81.5719 597.213 81.5386 596.453 81.5747C595.707 81.6128 594.958 81.7172 594.208 81.888C593.474 82.0463 592.751 82.2803 592.039 82.59C591.329 82.8852 590.668 83.2469 590.058 83.6751L587.511 100.957L581.077 100.009L584.856 74.3579ZM618.89 92.5432C619.167 90.6592 619.766 88.9559 620.687 87.4332C621.623 85.8981 622.839 84.6335 624.333 83.6395C625.843 82.6331 627.605 81.9303 629.618 81.5311C631.646 81.1339 633.892 81.1169 636.356 81.4799C637.428 81.6379 638.498 81.8622 639.566 82.1528C640.633 82.4434 641.649 82.7855 642.613 83.1793C643.593 83.5606 644.5 83.9831 645.335 84.4466C646.172 84.8957 646.888 85.3639 647.483 85.8513L643.79 90.2601C642.481 89.4008 641.218 88.7261 640.002 88.236C638.8 87.748 637.555 87.409 636.265 87.2189C634.787 87.0011 633.432 87.0014 632.2 87.2197C630.971 87.4235 629.892 87.8124 628.964 88.3863C628.052 88.9478 627.309 89.6676 626.735 90.5455C626.178 91.411 625.819 92.3945 625.657 93.4959C625.494 94.5973 625.568 95.6521 625.879 96.6602C626.206 97.6561 626.732 98.5554 627.458 99.3582C628.2 100.149 629.13 100.826 630.246 101.39C631.379 101.942 632.67 102.325 634.119 102.538C635.713 102.773 637.246 102.77 638.718 102.528C640.204 102.288 641.612 101.881 642.94 101.306L645.204 106.593C644.367 106.943 643.47 107.255 642.512 107.529C641.556 107.788 640.542 107.986 639.47 108.124C638.413 108.265 637.307 108.331 636.153 108.324C635.012 108.334 633.84 108.25 632.637 108.073C630.188 107.712 628.041 107.055 626.198 106.102C624.354 105.149 622.845 103.987 621.67 102.614C620.497 101.227 619.667 99.6761 619.18 97.9607C618.707 96.2475 618.61 94.4416 618.89 92.5432ZM658.663 90.1639L652.468 89.251L653.179 84.4252L659.374 85.3381L660.549 77.3603L666.984 78.3084L665.808 86.2862L672.004 87.1991L671.293 92.0249L665.097 91.112L662.029 111.937L655.594 110.989L658.663 90.1639ZM681.628 85.0414C680.99 84.9474 680.423 84.7751 679.927 84.5243C679.448 84.2612 679.049 83.9507 678.732 83.593C678.416 83.2208 678.187 82.8169 678.044 82.3812C677.918 81.9332 677.888 81.4773 677.957 81.0135C678.027 80.5353 678.187 80.1072 678.435 79.7292C678.7 79.3388 679.036 79.0181 679.443 78.7672C679.85 78.5162 680.32 78.3412 680.853 78.242C681.402 78.1305 681.996 78.1217 682.633 78.2157C683.285 78.3118 683.851 78.4914 684.331 78.7545C684.827 79.0053 685.234 79.3095 685.551 79.6673C685.869 80.025 686.09 80.4279 686.217 80.8759C686.36 81.3115 686.396 81.7685 686.326 82.2467C686.258 82.7105 686.091 83.1375 685.826 83.5279C685.578 83.9059 685.249 84.2276 684.84 84.4931C684.433 84.744 683.955 84.9253 683.405 85.0368C682.872 85.1359 682.28 85.1375 681.628 85.0414ZM677.895 88.0671L684.329 89.0153L680.549 114.666L674.115 113.718L677.895 88.0671ZM689.156 102.83C689.427 100.99 690.051 99.3198 691.027 97.8201C692.018 96.3226 693.29 95.0738 694.844 94.0738C696.413 93.076 698.226 92.3734 700.285 91.9661C702.359 91.5609 704.62 91.5387 707.069 91.8996C709.518 92.2605 711.67 92.9329 713.524 93.9168C715.392 94.9028 716.926 96.0986 718.125 97.5043C719.339 98.9122 720.197 100.475 720.7 102.192C721.216 103.912 721.339 105.692 721.068 107.533C720.796 109.373 720.165 111.042 719.175 112.54C718.199 114.039 716.926 115.288 715.358 116.286C713.804 117.286 711.99 117.988 709.917 118.394C707.858 118.801 705.604 118.824 703.155 118.463C700.706 118.102 698.547 117.429 696.679 116.443C694.825 115.459 693.291 114.263 692.077 112.855C690.877 111.45 690.019 109.887 689.503 108.167C689.001 106.45 688.885 104.671 689.156 102.83ZM695.917 103.827C695.765 104.855 695.824 105.864 696.093 106.851C696.379 107.826 696.861 108.726 697.539 109.551C698.233 110.364 699.115 111.064 700.183 111.651C701.268 112.226 702.535 112.62 703.984 112.833C705.434 113.047 706.753 113.034 707.943 112.795C709.15 112.543 710.196 112.127 711.081 111.547C711.983 110.954 712.704 110.231 713.244 109.378C713.801 108.513 714.155 107.565 714.307 106.536C714.459 105.507 714.393 104.498 714.109 103.509C713.84 102.522 713.358 101.621 712.664 100.808C711.986 99.9829 711.104 99.283 710.019 98.7085C708.951 98.1217 707.692 97.7215 706.243 97.508C704.793 97.2944 703.465 97.3135 702.259 97.565C701.068 97.8042 700.023 98.2202 699.121 98.8128C698.236 99.3931 697.515 100.116 696.958 100.982C696.415 101.849 696.068 102.798 695.917 103.827ZM729.457 95.6649L735.891 96.613L735.571 98.7868C737.424 98.0678 739.155 97.6269 740.763 97.4641C742.386 97.3035 743.944 97.3331 745.436 97.5531C747.393 97.8413 749.162 98.3981 750.743 99.2233C752.326 100.034 753.643 101.094 754.694 102.404C755.745 103.714 756.486 105.267 756.917 107.063C757.365 108.846 757.426 110.847 757.099 113.064L755.241 125.672L748.828 124.727L750.532 113.162C750.739 111.757 750.721 110.473 750.478 109.312C750.251 108.138 749.816 107.119 749.174 106.255C748.548 105.378 747.727 104.665 746.713 104.115C745.715 103.554 744.556 103.176 743.237 102.981C742.542 102.879 741.814 102.846 741.053 102.882C740.307 102.92 739.559 103.024 738.808 103.195C738.074 103.353 737.351 103.587 736.639 103.897C735.93 104.192 735.269 104.554 734.658 104.982L732.112 122.264L725.677 121.316L729.457 95.6649Z" fill="white" fill-opacity="0.3"/>
<path d="M721.462 514.767L713.694 510.913L735.334 467.295L743.103 471.149L741.657 474.062C742.574 473.928 743.6 473.881 744.736 473.922C745.872 473.962 747.051 474.089 748.275 474.304C749.498 474.518 750.722 474.82 751.946 475.21C753.179 475.581 754.364 476.049 755.501 476.614C758.126 477.916 760.34 479.494 762.145 481.349C763.968 483.213 765.319 485.235 766.2 487.416C767.08 489.597 767.471 491.884 767.374 494.278C767.303 496.662 766.681 499.036 765.509 501.398C764.285 503.865 762.715 505.865 760.798 507.4C758.89 508.917 756.762 509.976 754.414 510.577C752.092 511.17 749.612 511.291 746.973 510.941C744.36 510.582 741.742 509.752 739.117 508.45C737.997 507.894 736.921 507.273 735.888 506.586C734.873 505.908 733.919 505.195 733.025 504.446C732.15 503.707 731.348 502.949 730.621 502.174C729.92 501.39 729.328 500.628 728.845 499.887L721.462 514.767ZM732.569 492.381C733.044 493.401 733.61 494.347 734.268 495.219C734.926 496.09 735.64 496.891 736.411 497.623C737.182 498.354 737.996 499.02 738.854 499.62C739.721 500.202 740.591 500.711 741.466 501.145C743.251 502.03 744.951 502.579 746.568 502.793C748.211 502.997 749.713 502.914 751.074 502.543C752.453 502.181 753.678 501.557 754.75 500.671C755.822 499.786 756.687 498.678 757.347 497.348C757.963 496.106 758.291 494.808 758.331 493.454C758.388 492.109 758.148 490.79 757.611 489.499C757.1 488.2 756.297 486.983 755.202 485.851C754.133 484.71 752.776 483.732 751.131 482.916C750.082 482.395 748.98 481.979 747.826 481.668C746.681 481.34 745.527 481.117 744.365 480.998C743.22 480.888 742.089 480.883 740.971 480.982C739.871 481.09 738.845 481.312 737.894 481.647L732.569 492.381ZM780.475 489.691L788.243 493.545L786.029 498.006C788.378 497.58 790.735 497.376 793.103 497.395C795.47 497.414 797.72 497.647 799.852 498.095L798.607 506.34C795.468 505.153 792.5 504.52 789.705 504.441C786.936 504.354 784.374 504.903 782.019 506.09L772.878 524.513L765.11 520.659L780.475 489.691ZM813.644 500.882C812.874 500.5 812.227 500.048 811.701 499.525C811.201 498.994 810.824 498.436 810.569 497.852C810.323 497.25 810.198 496.643 810.197 496.032C810.221 495.412 810.372 494.822 810.65 494.262C810.936 493.684 811.315 493.207 811.785 492.83C812.282 492.444 812.84 492.176 813.46 492.026C814.079 491.875 814.748 491.847 815.464 491.941C816.207 492.026 816.963 492.259 817.733 492.641C818.52 493.032 819.164 493.493 819.663 494.024C820.189 494.547 820.579 495.1 820.834 495.684C821.089 496.269 821.205 496.871 821.181 497.492C821.182 498.103 821.04 498.697 820.754 499.275C820.476 499.835 820.089 500.307 819.592 500.693C819.122 501.07 818.572 501.343 817.944 501.511C817.324 501.661 816.643 501.694 815.9 501.609C815.184 501.515 814.432 501.273 813.644 500.882ZM807.664 503.18L815.432 507.034L800.068 538.003L792.299 534.149L807.664 503.18ZM825.405 511.982L833.173 515.837L831.871 518.461C834.517 518.313 836.894 518.467 839 518.924C841.124 519.389 843.087 520.068 844.889 520.963C847.251 522.134 849.265 523.569 850.929 525.267C852.603 526.948 853.836 528.835 854.629 530.929C855.421 533.023 855.721 535.298 855.528 537.753C855.36 540.199 854.613 542.76 853.285 545.437L845.733 560.659L837.991 556.818L844.918 542.856C845.76 541.159 846.266 539.524 846.435 537.951C846.631 536.369 846.5 534.898 846.042 533.537C845.61 532.167 844.863 530.924 843.803 529.81C842.769 528.686 841.456 527.729 839.863 526.939C839.024 526.523 838.114 526.181 837.135 525.913C836.173 525.654 835.182 525.478 834.159 525.385C833.163 525.283 832.15 525.282 831.12 525.381C830.098 525.463 829.111 525.649 828.16 525.941L817.809 546.805L810.04 542.951L825.405 511.982ZM872.431 542.574L864.951 538.863L867.842 533.037L875.322 536.748L880.1 527.116L887.869 530.971L883.09 540.602L890.57 544.313L887.679 550.139L880.199 546.428L867.725 571.57L859.957 567.716L872.431 542.574Z" fill="white" fill-opacity="0.3"/>
<path d="M1062.89 454.699C1062.12 452.054 1061.93 449.527 1062.31 447.119C1062.69 444.693 1063.53 442.477 1064.84 440.471C1066.16 438.44 1067.91 436.674 1070.08 435.172C1072.26 433.646 1074.76 432.476 1077.57 431.661C1078.77 431.313 1079.98 431.046 1081.18 430.86C1082.41 430.668 1083.59 430.548 1084.74 430.501C1085.9 430.449 1087.01 430.474 1088.05 430.578C1089.11 430.658 1090.07 430.807 1090.93 431.027L1086.33 415.155L1094.66 412.744L1108.18 459.43L1099.85 461.841L1098.95 458.718C1098.36 459.436 1097.64 460.164 1096.77 460.902C1095.91 461.641 1094.95 462.344 1093.91 463.013C1092.86 463.682 1091.74 464.29 1090.56 464.836C1089.4 465.395 1088.22 465.849 1087.02 466.196C1084.21 467.011 1081.5 467.348 1078.89 467.207C1076.31 467.06 1073.96 466.481 1071.83 465.469C1069.71 464.457 1067.87 463.048 1066.31 461.243C1064.76 459.413 1063.62 457.232 1062.89 454.699ZM1071.64 452.165C1072.03 453.497 1072.65 454.678 1073.52 455.708C1074.41 456.733 1075.48 457.551 1076.73 458.164C1078 458.752 1079.42 459.105 1080.98 459.223C1082.55 459.317 1084.22 459.109 1085.98 458.598C1087.11 458.272 1088.2 457.843 1089.27 457.311C1090.33 456.76 1091.32 456.138 1092.23 455.445C1093.17 454.747 1094.01 453.986 1094.75 453.163C1095.5 452.334 1096.12 451.475 1096.59 450.585L1093.26 439.075C1092.22 438.644 1091.16 438.33 1090.09 438.133C1089.01 437.935 1087.95 437.827 1086.88 437.81C1085.82 437.792 1084.77 437.861 1083.74 438.018C1082.7 438.156 1081.72 438.36 1080.78 438.632C1078.86 439.186 1077.23 439.943 1075.88 440.903C1074.55 441.838 1073.5 442.906 1072.72 444.105C1071.97 445.299 1071.5 446.584 1071.31 447.961C1071.12 449.338 1071.23 450.74 1071.64 452.165ZM1111.98 440.213C1111.33 437.961 1111.17 435.68 1111.49 433.369C1111.82 431.039 1112.61 428.837 1113.88 426.761C1115.15 424.685 1116.9 422.817 1119.12 421.157C1121.36 419.491 1124.08 418.197 1127.27 417.273C1130.44 416.355 1133.43 416.008 1136.24 416.232C1139.06 416.431 1141.59 417.101 1143.84 418.241C1146.1 419.376 1148.02 420.924 1149.6 422.885C1151.21 424.841 1152.38 427.094 1153.12 429.646C1153.21 429.965 1153.3 430.314 1153.39 430.695C1153.49 431.052 1153.57 431.385 1153.62 431.696L1122.21 440.789C1122.86 441.68 1123.69 442.424 1124.72 443.021C1125.76 443.613 1126.97 444.036 1128.35 444.288C1129.72 444.541 1131.25 444.608 1132.92 444.49C1134.59 444.352 1136.38 444.007 1138.29 443.453C1140.21 442.899 1142.05 442.15 1143.84 441.208C1145.61 440.246 1147.27 439.206 1148.82 438.088L1153.47 443.633C1152.53 444.454 1151.56 445.225 1150.54 445.945C1149.55 446.641 1148.48 447.296 1147.33 447.912C1146.2 448.504 1144.99 449.058 1143.7 449.575C1142.42 450.086 1141.05 450.554 1139.59 450.977C1135.85 452.058 1132.45 452.556 1129.38 452.47C1126.3 452.384 1123.59 451.837 1121.24 450.829C1118.9 449.82 1116.94 448.404 1115.38 446.579C1113.81 444.755 1112.68 442.633 1111.98 440.213ZM1142.98 427.73C1142.42 426.897 1141.7 426.179 1140.84 425.576C1139.98 424.949 1139 424.48 1137.9 424.17C1136.78 423.841 1135.56 423.687 1134.22 423.708C1132.89 423.729 1131.48 423.953 1130 424.383C1128.42 424.839 1127.04 425.433 1125.85 426.164C1124.66 426.895 1123.66 427.702 1122.86 428.585C1122.06 429.468 1121.44 430.398 1121.01 431.376C1120.6 432.349 1120.37 433.319 1120.33 434.288L1142.98 427.73ZM1162.4 414.514L1156.71 416.16L1154.91 409.913L1160.59 408.267C1159.94 406.016 1159.68 403.925 1159.81 401.996C1159.94 400.048 1160.43 398.299 1161.28 396.751C1162.15 395.179 1163.35 393.823 1164.89 392.686C1166.45 391.543 1168.32 390.656 1170.5 390.026C1172.02 389.586 1173.55 389.305 1175.1 389.181C1176.65 389.039 1178.06 389.077 1179.34 389.295L1178.42 397.158C1177.89 397.025 1177.18 396.966 1176.29 396.98C1175.42 396.989 1174.5 397.134 1173.52 397.416C1171.61 397.97 1170.22 398.963 1169.35 400.393C1168.5 401.799 1168.35 403.62 1168.92 405.855L1179.42 402.816L1181.22 409.064L1170.73 412.103L1178.53 439.062L1170.2 441.474L1162.4 414.514Z" fill="white" fill-opacity="0.3"/>
<path d="M74.9656 62.6215C73.4618 60.2409 72.3542 57.7256 71.6428 55.0755C70.9314 52.4254 70.5622 49.7228 70.5352 46.9677C70.5082 44.2125 70.802 41.4472 71.4168 38.6718C72.0365 35.8739 72.9076 33.1386 74.0301 30.4659L79.609 33.0349C78.7596 35.4388 78.1032 37.7978 77.6398 40.1119C77.1678 42.4123 76.943 44.6622 76.9656 46.8618C77.002 49.0528 77.2951 51.1778 77.845 53.2369C78.4086 55.2872 79.2858 57.255 80.4767 59.1402C81.6675 61.0254 82.997 62.6883 84.4652 64.1288C85.9472 65.5605 87.5878 66.7863 89.3869 67.8059C91.1861 68.8256 93.1595 69.6486 95.307 70.2749C97.4458 70.8875 99.7831 71.3266 102.319 71.5922L102.242 77.7337C99.3464 77.5992 96.5728 77.1855 93.9211 76.4925C91.292 75.8047 88.8211 74.8339 86.5084 73.5804C84.2007 72.3044 82.0781 70.7575 80.1406 68.9397C78.1943 67.1081 76.4693 65.0021 74.9656 62.6215ZM127.6 29.3736C129.104 31.7542 130.264 34.2166 131.082 36.761C131.892 39.2915 132.37 41.8771 132.517 44.5178C132.669 47.1361 132.484 49.7844 131.962 52.4628C131.463 55.1463 130.652 57.8243 129.529 60.497L123.95 57.928C124.8 55.5241 125.407 53.2248 125.773 51.0303C126.13 48.8219 126.234 46.6864 126.086 44.6237C125.939 42.5609 125.53 40.5573 124.86 38.6126C124.203 36.6593 123.28 34.7401 122.089 32.8549C120.898 30.9697 119.491 29.3365 117.868 27.9554C116.258 26.5657 114.465 25.3881 112.489 24.4228C110.526 23.4488 108.404 22.6808 106.124 22.119C103.836 21.5433 101.423 21.1227 98.8876 20.8571L98.9643 14.7156C101.86 14.8501 104.697 15.2428 107.476 15.8937C110.261 16.5222 112.891 17.4404 115.367 18.6483C117.844 19.8562 120.126 21.3506 122.213 23.1315C124.3 24.9123 126.096 26.993 127.6 29.3736Z" fill="white" fill-opacity="0.3"/>
</svg>
